<mxfile host="app.diagrams.net" modified="2023-04-23T15:13:46.315Z" agent="Mozilla/5.0 (Windows NT 10.0; Win64; x64) AppleWebKit/537.36 (KHTML, like Gecko) Chrome/112.0.0.0 Safari/537.36" etag="vguv87IZEbF59KUiYLGr" version="21.1.5" type="github">
  <diagram id="oenCUZravD_j0KEUVVOz" name="第 1 页">
    <mxGraphModel dx="1290" dy="623" grid="1" gridSize="10" guides="1" tooltips="1" connect="1" arrows="1" fold="1" page="1" pageScale="1" pageWidth="827" pageHeight="1169" math="0" shadow="0">
      <root>
        <mxCell id="0" />
        <mxCell id="1" parent="0" />
        <mxCell id="jzQ5nGBSuvb_eRsUG-9v-4" style="edgeStyle=none;curved=1;rounded=0;orthogonalLoop=1;jettySize=auto;html=1;exitX=1;exitY=0.5;exitDx=0;exitDy=0;fontSize=12;startSize=8;endSize=8;" edge="1" parent="1" source="8QQnp6rosEuOKjFQxkqT-1">
          <mxGeometry relative="1" as="geometry">
            <mxPoint x="430" y="120" as="targetPoint" />
          </mxGeometry>
        </mxCell>
        <mxCell id="jzQ5nGBSuvb_eRsUG-9v-7" style="edgeStyle=none;curved=1;rounded=0;orthogonalLoop=1;jettySize=auto;html=1;exitX=0.5;exitY=1;exitDx=0;exitDy=0;entryX=0.5;entryY=0;entryDx=0;entryDy=0;fontSize=12;startSize=8;endSize=8;" edge="1" parent="1" source="8QQnp6rosEuOKjFQxkqT-1" target="jzQ5nGBSuvb_eRsUG-9v-1">
          <mxGeometry relative="1" as="geometry" />
        </mxCell>
        <mxCell id="jzQ5nGBSuvb_eRsUG-9v-8" style="edgeStyle=none;curved=1;rounded=0;orthogonalLoop=1;jettySize=auto;html=1;exitX=0.5;exitY=1;exitDx=0;exitDy=0;entryX=0.5;entryY=0;entryDx=0;entryDy=0;fontSize=12;startSize=8;endSize=8;" edge="1" parent="1" source="8QQnp6rosEuOKjFQxkqT-1" target="8QQnp6rosEuOKjFQxkqT-7">
          <mxGeometry relative="1" as="geometry" />
        </mxCell>
        <mxCell id="jzQ5nGBSuvb_eRsUG-9v-9" style="edgeStyle=none;curved=1;rounded=0;orthogonalLoop=1;jettySize=auto;html=1;exitX=0.5;exitY=1;exitDx=0;exitDy=0;entryX=0.5;entryY=0;entryDx=0;entryDy=0;fontSize=12;startSize=8;endSize=8;" edge="1" parent="1" source="8QQnp6rosEuOKjFQxkqT-1" target="8QQnp6rosEuOKjFQxkqT-6">
          <mxGeometry relative="1" as="geometry" />
        </mxCell>
        <mxCell id="jzQ5nGBSuvb_eRsUG-9v-10" style="edgeStyle=none;curved=1;rounded=0;orthogonalLoop=1;jettySize=auto;html=1;exitX=0.5;exitY=1;exitDx=0;exitDy=0;entryX=0.25;entryY=0;entryDx=0;entryDy=0;fontSize=12;startSize=8;endSize=8;" edge="1" parent="1" source="8QQnp6rosEuOKjFQxkqT-1" target="8QQnp6rosEuOKjFQxkqT-2">
          <mxGeometry relative="1" as="geometry" />
        </mxCell>
        <mxCell id="8QQnp6rosEuOKjFQxkqT-1" value="茶叶生产管理系统" style="rounded=0;whiteSpace=wrap;html=1;" parent="1" vertex="1">
          <mxGeometry x="270" y="100" width="160" height="40" as="geometry" />
        </mxCell>
        <mxCell id="jzQ5nGBSuvb_eRsUG-9v-15" style="edgeStyle=none;curved=1;rounded=0;orthogonalLoop=1;jettySize=auto;html=1;exitX=0.5;exitY=1;exitDx=0;exitDy=0;entryX=0.25;entryY=0;entryDx=0;entryDy=0;fontSize=12;startSize=8;endSize=8;" edge="1" parent="1" source="8QQnp6rosEuOKjFQxkqT-2" target="jzQ5nGBSuvb_eRsUG-9v-11">
          <mxGeometry relative="1" as="geometry" />
        </mxCell>
        <mxCell id="jzQ5nGBSuvb_eRsUG-9v-16" style="edgeStyle=none;curved=1;rounded=0;orthogonalLoop=1;jettySize=auto;html=1;exitX=0.5;exitY=1;exitDx=0;exitDy=0;entryX=0.5;entryY=0;entryDx=0;entryDy=0;fontSize=12;startSize=8;endSize=8;" edge="1" parent="1" source="8QQnp6rosEuOKjFQxkqT-2" target="jzQ5nGBSuvb_eRsUG-9v-12">
          <mxGeometry relative="1" as="geometry" />
        </mxCell>
        <mxCell id="jzQ5nGBSuvb_eRsUG-9v-17" style="edgeStyle=none;curved=1;rounded=0;orthogonalLoop=1;jettySize=auto;html=1;exitX=0.5;exitY=1;exitDx=0;exitDy=0;entryX=0.5;entryY=0;entryDx=0;entryDy=0;fontSize=12;startSize=8;endSize=8;" edge="1" parent="1" source="8QQnp6rosEuOKjFQxkqT-2" target="jzQ5nGBSuvb_eRsUG-9v-13">
          <mxGeometry relative="1" as="geometry" />
        </mxCell>
        <mxCell id="jzQ5nGBSuvb_eRsUG-9v-18" style="edgeStyle=none;curved=1;rounded=0;orthogonalLoop=1;jettySize=auto;html=1;exitX=0.5;exitY=1;exitDx=0;exitDy=0;entryX=0.5;entryY=0;entryDx=0;entryDy=0;fontSize=12;startSize=8;endSize=8;" edge="1" parent="1" source="8QQnp6rosEuOKjFQxkqT-2" target="jzQ5nGBSuvb_eRsUG-9v-14">
          <mxGeometry relative="1" as="geometry" />
        </mxCell>
        <mxCell id="8QQnp6rosEuOKjFQxkqT-2" value="用户层" style="rounded=0;whiteSpace=wrap;html=1;" parent="1" vertex="1">
          <mxGeometry x="205" y="220" width="25" height="110" as="geometry" />
        </mxCell>
        <mxCell id="jzQ5nGBSuvb_eRsUG-9v-24" style="edgeStyle=none;curved=1;rounded=0;orthogonalLoop=1;jettySize=auto;html=1;exitX=0.5;exitY=1;exitDx=0;exitDy=0;entryX=0.5;entryY=0;entryDx=0;entryDy=0;fontSize=12;startSize=8;endSize=8;" edge="1" parent="1" source="8QQnp6rosEuOKjFQxkqT-6" target="jzQ5nGBSuvb_eRsUG-9v-19">
          <mxGeometry relative="1" as="geometry" />
        </mxCell>
        <mxCell id="jzQ5nGBSuvb_eRsUG-9v-25" style="edgeStyle=none;curved=1;rounded=0;orthogonalLoop=1;jettySize=auto;html=1;exitX=0.5;exitY=1;exitDx=0;exitDy=0;entryX=0.5;entryY=0;entryDx=0;entryDy=0;fontSize=12;startSize=8;endSize=8;" edge="1" parent="1" source="8QQnp6rosEuOKjFQxkqT-6" target="jzQ5nGBSuvb_eRsUG-9v-20">
          <mxGeometry relative="1" as="geometry" />
        </mxCell>
        <mxCell id="jzQ5nGBSuvb_eRsUG-9v-26" style="edgeStyle=none;curved=1;rounded=0;orthogonalLoop=1;jettySize=auto;html=1;exitX=0.5;exitY=1;exitDx=0;exitDy=0;entryX=0.5;entryY=0;entryDx=0;entryDy=0;fontSize=12;startSize=8;endSize=8;" edge="1" parent="1" source="8QQnp6rosEuOKjFQxkqT-6" target="jzQ5nGBSuvb_eRsUG-9v-21">
          <mxGeometry relative="1" as="geometry" />
        </mxCell>
        <mxCell id="jzQ5nGBSuvb_eRsUG-9v-27" style="edgeStyle=none;curved=1;rounded=0;orthogonalLoop=1;jettySize=auto;html=1;exitX=0.5;exitY=1;exitDx=0;exitDy=0;entryX=0.5;entryY=0;entryDx=0;entryDy=0;fontSize=12;startSize=8;endSize=8;" edge="1" parent="1" source="8QQnp6rosEuOKjFQxkqT-6" target="jzQ5nGBSuvb_eRsUG-9v-22">
          <mxGeometry relative="1" as="geometry" />
        </mxCell>
        <mxCell id="jzQ5nGBSuvb_eRsUG-9v-28" style="edgeStyle=none;curved=1;rounded=0;orthogonalLoop=1;jettySize=auto;html=1;exitX=0.5;exitY=1;exitDx=0;exitDy=0;entryX=0.75;entryY=0;entryDx=0;entryDy=0;fontSize=12;startSize=8;endSize=8;" edge="1" parent="1" source="8QQnp6rosEuOKjFQxkqT-6" target="jzQ5nGBSuvb_eRsUG-9v-23">
          <mxGeometry relative="1" as="geometry" />
        </mxCell>
        <mxCell id="8QQnp6rosEuOKjFQxkqT-6" value="应用层" style="rounded=0;whiteSpace=wrap;html=1;" parent="1" vertex="1">
          <mxGeometry x="297.5" y="220" width="25" height="110" as="geometry" />
        </mxCell>
        <mxCell id="jzQ5nGBSuvb_eRsUG-9v-33" style="edgeStyle=none;curved=1;rounded=0;orthogonalLoop=1;jettySize=auto;html=1;exitX=0.5;exitY=1;exitDx=0;exitDy=0;entryX=0.5;entryY=0;entryDx=0;entryDy=0;fontSize=12;startSize=8;endSize=8;" edge="1" parent="1" source="8QQnp6rosEuOKjFQxkqT-7" target="jzQ5nGBSuvb_eRsUG-9v-29">
          <mxGeometry relative="1" as="geometry" />
        </mxCell>
        <mxCell id="jzQ5nGBSuvb_eRsUG-9v-34" style="edgeStyle=none;curved=1;rounded=0;orthogonalLoop=1;jettySize=auto;html=1;exitX=0.5;exitY=1;exitDx=0;exitDy=0;entryX=0.5;entryY=0;entryDx=0;entryDy=0;fontSize=12;startSize=8;endSize=8;" edge="1" parent="1" source="8QQnp6rosEuOKjFQxkqT-7" target="jzQ5nGBSuvb_eRsUG-9v-30">
          <mxGeometry relative="1" as="geometry" />
        </mxCell>
        <mxCell id="jzQ5nGBSuvb_eRsUG-9v-35" style="edgeStyle=none;curved=1;rounded=0;orthogonalLoop=1;jettySize=auto;html=1;exitX=0.5;exitY=1;exitDx=0;exitDy=0;entryX=0.5;entryY=0;entryDx=0;entryDy=0;fontSize=12;startSize=8;endSize=8;" edge="1" parent="1" source="8QQnp6rosEuOKjFQxkqT-7" target="jzQ5nGBSuvb_eRsUG-9v-31">
          <mxGeometry relative="1" as="geometry" />
        </mxCell>
        <mxCell id="jzQ5nGBSuvb_eRsUG-9v-36" style="edgeStyle=none;curved=1;rounded=0;orthogonalLoop=1;jettySize=auto;html=1;exitX=0.5;exitY=1;exitDx=0;exitDy=0;entryX=0.5;entryY=0;entryDx=0;entryDy=0;fontSize=12;startSize=8;endSize=8;" edge="1" parent="1" source="8QQnp6rosEuOKjFQxkqT-7" target="jzQ5nGBSuvb_eRsUG-9v-32">
          <mxGeometry relative="1" as="geometry" />
        </mxCell>
        <mxCell id="8QQnp6rosEuOKjFQxkqT-7" value="数据层" style="rounded=0;whiteSpace=wrap;html=1;" parent="1" vertex="1">
          <mxGeometry x="389" y="220" width="25" height="110" as="geometry" />
        </mxCell>
        <mxCell id="jzQ5nGBSuvb_eRsUG-9v-40" style="edgeStyle=none;curved=1;rounded=0;orthogonalLoop=1;jettySize=auto;html=1;exitX=0.5;exitY=1;exitDx=0;exitDy=0;entryX=0.5;entryY=0;entryDx=0;entryDy=0;fontSize=12;startSize=8;endSize=8;" edge="1" parent="1" source="jzQ5nGBSuvb_eRsUG-9v-1" target="jzQ5nGBSuvb_eRsUG-9v-37">
          <mxGeometry relative="1" as="geometry" />
        </mxCell>
        <mxCell id="jzQ5nGBSuvb_eRsUG-9v-41" style="edgeStyle=none;curved=1;rounded=0;orthogonalLoop=1;jettySize=auto;html=1;exitX=0.5;exitY=1;exitDx=0;exitDy=0;entryX=0.5;entryY=0;entryDx=0;entryDy=0;fontSize=12;startSize=8;endSize=8;" edge="1" parent="1" source="jzQ5nGBSuvb_eRsUG-9v-1" target="jzQ5nGBSuvb_eRsUG-9v-38">
          <mxGeometry relative="1" as="geometry" />
        </mxCell>
        <mxCell id="jzQ5nGBSuvb_eRsUG-9v-42" style="edgeStyle=none;curved=1;rounded=0;orthogonalLoop=1;jettySize=auto;html=1;exitX=0.5;exitY=1;exitDx=0;exitDy=0;entryX=0.5;entryY=0;entryDx=0;entryDy=0;fontSize=12;startSize=8;endSize=8;" edge="1" parent="1" source="jzQ5nGBSuvb_eRsUG-9v-1" target="jzQ5nGBSuvb_eRsUG-9v-39">
          <mxGeometry relative="1" as="geometry" />
        </mxCell>
        <mxCell id="jzQ5nGBSuvb_eRsUG-9v-1" value="技术支持层" style="rounded=0;whiteSpace=wrap;html=1;" vertex="1" parent="1">
          <mxGeometry x="490" y="220" width="25" height="110" as="geometry" />
        </mxCell>
        <mxCell id="jzQ5nGBSuvb_eRsUG-9v-2" style="edgeStyle=none;curved=1;rounded=0;orthogonalLoop=1;jettySize=auto;html=1;entryX=1;entryY=0.5;entryDx=0;entryDy=0;fontSize=12;startSize=8;endSize=8;" edge="1" parent="1" source="8QQnp6rosEuOKjFQxkqT-1" target="8QQnp6rosEuOKjFQxkqT-1">
          <mxGeometry relative="1" as="geometry" />
        </mxCell>
        <mxCell id="jzQ5nGBSuvb_eRsUG-9v-11" value="管理人员" style="rounded=0;whiteSpace=wrap;html=1;" vertex="1" parent="1">
          <mxGeometry x="140" y="350" width="25" height="110" as="geometry" />
        </mxCell>
        <mxCell id="jzQ5nGBSuvb_eRsUG-9v-12" value="生产人员" style="rounded=0;whiteSpace=wrap;html=1;" vertex="1" parent="1">
          <mxGeometry x="165" y="350" width="25" height="110" as="geometry" />
        </mxCell>
        <mxCell id="jzQ5nGBSuvb_eRsUG-9v-13" value="采购人员" style="rounded=0;whiteSpace=wrap;html=1;" vertex="1" parent="1">
          <mxGeometry x="190" y="350" width="25" height="110" as="geometry" />
        </mxCell>
        <mxCell id="jzQ5nGBSuvb_eRsUG-9v-14" value="销售人员" style="rounded=0;whiteSpace=wrap;html=1;" vertex="1" parent="1">
          <mxGeometry x="215" y="350" width="25" height="110" as="geometry" />
        </mxCell>
        <mxCell id="jzQ5nGBSuvb_eRsUG-9v-19" value="生产计划模块" style="rounded=0;whiteSpace=wrap;html=1;" vertex="1" parent="1">
          <mxGeometry x="250" y="350" width="25" height="110" as="geometry" />
        </mxCell>
        <mxCell id="jzQ5nGBSuvb_eRsUG-9v-20" value="采购管理模块" style="rounded=0;whiteSpace=wrap;html=1;" vertex="1" parent="1">
          <mxGeometry x="275" y="350" width="25" height="110" as="geometry" />
        </mxCell>
        <mxCell id="jzQ5nGBSuvb_eRsUG-9v-21" value="质量检测模块" style="rounded=0;whiteSpace=wrap;html=1;" vertex="1" parent="1">
          <mxGeometry x="300" y="350" width="25" height="110" as="geometry" />
        </mxCell>
        <mxCell id="jzQ5nGBSuvb_eRsUG-9v-22" value="库存管理模块" style="rounded=0;whiteSpace=wrap;html=1;" vertex="1" parent="1">
          <mxGeometry x="325" y="350" width="25" height="110" as="geometry" />
        </mxCell>
        <mxCell id="jzQ5nGBSuvb_eRsUG-9v-23" value="生产过程模块" style="rounded=0;whiteSpace=wrap;html=1;" vertex="1" parent="1">
          <mxGeometry x="350" y="350" width="25" height="110" as="geometry" />
        </mxCell>
        <mxCell id="jzQ5nGBSuvb_eRsUG-9v-29" value="生产数据" style="rounded=0;whiteSpace=wrap;html=1;" vertex="1" parent="1">
          <mxGeometry x="390" y="350" width="25" height="110" as="geometry" />
        </mxCell>
        <mxCell id="jzQ5nGBSuvb_eRsUG-9v-30" value="采购数据" style="rounded=0;whiteSpace=wrap;html=1;" vertex="1" parent="1">
          <mxGeometry x="414" y="350" width="25" height="110" as="geometry" />
        </mxCell>
        <mxCell id="jzQ5nGBSuvb_eRsUG-9v-31" value="库存数据" style="rounded=0;whiteSpace=wrap;html=1;" vertex="1" parent="1">
          <mxGeometry x="439" y="350" width="25" height="110" as="geometry" />
        </mxCell>
        <mxCell id="jzQ5nGBSuvb_eRsUG-9v-32" value="销售数据" style="rounded=0;whiteSpace=wrap;html=1;" vertex="1" parent="1">
          <mxGeometry x="460" y="350" width="25" height="110" as="geometry" />
        </mxCell>
        <mxCell id="jzQ5nGBSuvb_eRsUG-9v-37" value="系统开发" style="rounded=0;whiteSpace=wrap;html=1;" vertex="1" parent="1">
          <mxGeometry x="500" y="350" width="25" height="110" as="geometry" />
        </mxCell>
        <mxCell id="jzQ5nGBSuvb_eRsUG-9v-38" value="系统维护" style="rounded=0;whiteSpace=wrap;html=1;" vertex="1" parent="1">
          <mxGeometry x="525" y="350" width="25" height="110" as="geometry" />
        </mxCell>
        <mxCell id="jzQ5nGBSuvb_eRsUG-9v-39" value="系统升级" style="rounded=0;whiteSpace=wrap;html=1;" vertex="1" parent="1">
          <mxGeometry x="550" y="350" width="25" height="110" as="geometry" />
        </mxCell>
      </root>
    </mxGraphModel>
  </diagram>
</mxfile>
